<svg width="90" height="90" viewBox="0 0 90 90" fill="none" xmlns="http://www.w3.org/2000/svg">
<path d="M0 0H90V90H0V0Z" fill="#563C71"/>
<path d="M53.906 51.008L51.3382 55.453C53.5056 57.312 54.7466 59.957 54.7466 62.816C54.7466 68.191 50.3731 72.562 45.0005 72.562C39.6269 72.562 35.2574 68.191 35.2574 62.816C35.2574 59.957 36.4984 57.312 38.6658 55.453L36.098 51.008C34.8181 51.598 33.4645 51.91 32.0551 51.91C26.6826 51.91 22.313 47.539 22.313 42.164C22.313 39.562 23.325 37.113 25.1686 35.273C27.0053 33.434 29.4525 32.422 32.0551 32.422C37.0821 32.422 41.3431 36.34 41.7594 41.348L41.7086 41.437H48.2914L48.2446 41.348C48.6609 36.34 52.9219 32.422 57.9449 32.422C63.3174 32.422 67.691 36.793 67.691 42.164C67.691 47.539 63.3174 51.91 57.9449 51.91C56.5395 51.91 55.1859 51.598 53.906 51.008ZM45.136 36.348C45.0931 36.441 45.0433 36.535 45.0005 36.629C44.9617 36.535 44.9109 36.441 44.868 36.348H45.136ZM72.0526 42.164C72.0526 34.387 65.7218 28.059 57.9449 28.059C53.6689 28.059 49.7814 30.027 47.1748 33.117V24.859H56.1938V20.496H47.1748V13.078H42.8132V20.496H33.7952V24.859H42.8132V33.105C40.2106 30.019 36.3281 28.059 32.0551 28.059C24.2782 28.059 17.9474 34.387 17.9474 42.164C17.9474 49.945 24.2782 56.273 32.0551 56.273C32.2195 56.273 32.3709 56.25 32.5302 56.246C31.4754 58.238 30.8918 60.477 30.8918 62.816C30.8918 70.598 37.2225 76.926 45.0005 76.926C52.7815 76.926 59.1082 70.598 59.1082 62.816C59.1082 60.477 58.5285 58.238 57.4698 56.246C57.6291 56.25 57.7845 56.273 57.9449 56.273C65.7218 56.273 72.0526 49.945 72.0526 42.164Z" fill="white"/>
</svg>
