<svg width="454" height="100" viewBox="0 0 454 100" fill="none" xmlns="http://www.w3.org/2000/svg">
<g clip-path="url(#clip0_2_36)">
<path d="M5 5H95.359V95H5V5Z" fill="#563C71"/>
<path d="M59.121 56.008L56.543 60.453C58.719 62.312 59.965 64.957 59.965 67.816C59.965 73.191 55.574 77.562 50.18 77.562C44.785 77.562 40.398 73.191 40.398 67.816C40.398 64.957 41.644 62.312 43.82 60.453L41.242 56.008C39.957 56.598 38.598 56.91 37.183 56.91C31.789 56.91 27.402 52.539 27.402 47.164C27.402 44.562 28.418 42.113 30.269 40.273C32.113 38.434 34.57 37.422 37.183 37.422C42.23 37.422 46.508 41.34 46.926 46.348L46.875 46.437H53.484L53.437 46.348C53.855 41.34 58.133 37.422 63.176 37.422C68.57 37.422 72.961 41.793 72.961 47.164C72.961 52.539 68.57 56.91 63.176 56.91C61.765 56.91 60.406 56.598 59.121 56.008ZM50.316 41.348C50.273 41.441 50.223 41.535 50.18 41.629C50.141 41.535 50.09 41.441 50.047 41.348H50.316ZM77.34 47.164C77.34 39.387 70.984 33.059 63.176 33.059C58.883 33.059 54.98 35.027 52.363 38.117V29.859H61.418V25.496H52.363V18.078H47.984V25.496H38.93V29.859H47.984V38.105C45.371 35.019 41.473 33.059 37.183 33.059C29.375 33.059 23.019 39.387 23.019 47.164C23.019 54.945 29.375 61.273 37.183 61.273C37.348 61.273 37.5 61.25 37.66 61.246C36.601 63.238 36.015 65.477 36.015 67.816C36.015 75.598 42.371 81.926 50.18 81.926C57.992 81.926 64.344 75.598 64.344 67.816C64.344 65.477 63.762 63.238 62.699 61.246C62.859 61.25 63.015 61.273 63.176 61.273C70.984 61.273 77.34 54.945 77.34 47.164Z" fill="white"/>
<path d="M126.191 28.4496H121.074C120.981 27.7876 120.79 27.1995 120.501 26.6854C120.213 26.1636 119.843 25.7196 119.392 25.3535C118.94 24.9875 118.418 24.7071 117.826 24.5124C117.242 24.3176 116.607 24.2203 115.922 24.2203C114.683 24.2203 113.604 24.5279 112.685 25.1433C111.766 25.7508 111.054 26.6387 110.547 27.807C110.041 28.9676 109.788 30.3773 109.788 32.0364C109.788 33.7421 110.041 35.1753 110.547 36.3358C111.061 37.4963 111.778 38.3726 112.697 38.9645C113.616 39.5565 114.679 39.8525 115.887 39.8525C116.564 39.8525 117.191 39.7629 117.768 39.5837C118.352 39.4046 118.87 39.1437 119.321 38.801C119.773 38.4505 120.147 38.026 120.443 37.5275C120.747 37.029 120.957 36.4604 121.074 35.8217L126.191 35.8451C126.059 36.9433 125.728 38.0026 125.198 39.0229C124.676 40.0355 123.971 40.9429 123.083 41.7451C122.203 42.5396 121.152 43.1705 119.929 43.6378C118.714 44.0974 117.339 44.3271 115.805 44.3271C113.671 44.3271 111.762 43.8442 110.08 42.8784C108.405 41.9126 107.081 40.5145 106.108 38.6841C105.142 36.8538 104.659 34.6378 104.659 32.0364C104.659 29.4271 105.15 27.2073 106.131 25.3769C107.113 23.5465 108.444 22.1523 110.127 21.1943C111.809 20.2285 113.702 19.7456 115.805 19.7456C117.191 19.7456 118.476 19.9403 119.66 20.3298C120.852 20.7192 121.907 21.2878 122.826 22.0355C123.746 22.7754 124.493 23.6828 125.07 24.7577C125.654 25.8326 126.028 27.0632 126.191 28.4496ZM137.413 44.3388C136.268 44.3388 135.248 44.1402 134.352 43.743C133.456 43.3379 132.747 42.7421 132.226 41.9554C131.712 41.161 131.455 40.1718 131.455 38.9879C131.455 37.9909 131.638 37.1536 132.004 36.476C132.37 35.7984 132.868 35.2531 133.499 34.8403C134.13 34.4275 134.847 34.116 135.649 33.9057C136.459 33.6954 137.308 33.5474 138.196 33.4617C139.239 33.3527 140.081 33.2514 140.719 33.158C141.358 33.0567 141.821 32.9087 142.11 32.714C142.398 32.5193 142.542 32.2311 142.542 31.8494V31.7793C142.542 31.0394 142.308 30.4669 141.841 30.0619C141.381 29.6569 140.727 29.4544 139.878 29.4544C138.982 29.4544 138.27 29.653 137.74 30.0502C137.21 30.4397 136.86 30.9303 136.689 31.5223L132.085 31.1484C132.319 30.058 132.779 29.1156 133.464 28.3211C134.149 27.5188 135.033 26.9035 136.116 26.4751C137.207 26.039 138.468 25.8209 139.902 25.8209C140.898 25.8209 141.853 25.9377 142.764 26.1714C143.683 26.405 144.497 26.7672 145.206 27.2579C145.922 27.7486 146.487 28.3795 146.9 29.1506C147.313 29.9139 147.519 30.8291 147.519 31.8962V44H142.799V41.5115H142.659C142.371 42.0723 141.985 42.5669 141.502 42.9952C141.019 43.4158 140.439 43.7469 139.761 43.9883C139.084 44.222 138.301 44.3388 137.413 44.3388ZM138.838 40.9039C139.57 40.9039 140.217 40.7598 140.778 40.4717C141.339 40.1757 141.779 39.7785 142.098 39.28C142.417 38.7815 142.577 38.2168 142.577 37.5859V35.6815C142.421 35.7828 142.207 35.8763 141.934 35.9619C141.67 36.0398 141.37 36.1138 141.035 36.1839C140.7 36.2462 140.365 36.3046 140.03 36.3592C139.695 36.4059 139.391 36.4487 139.119 36.4877C138.535 36.5734 138.024 36.7097 137.588 36.8966C137.152 37.0835 136.813 37.3367 136.572 37.656C136.33 37.9676 136.21 38.357 136.21 38.8243C136.21 39.502 136.455 40.0199 136.946 40.3782C137.444 40.7287 138.075 40.9039 138.838 40.9039ZM158.928 33.6253V44H153.951V26.0545H158.694V29.2207H158.904C159.302 28.177 159.967 27.3514 160.902 26.7439C161.837 26.1285 162.97 25.8209 164.302 25.8209C165.548 25.8209 166.635 26.0935 167.562 26.6387C168.488 27.1839 169.209 27.9628 169.723 28.9754C170.237 29.9801 170.494 31.1796 170.494 32.5738V44H165.517V33.4617C165.525 32.3635 165.244 31.5067 164.676 30.8914C164.107 30.2683 163.324 29.9567 162.327 29.9567C161.658 29.9567 161.066 30.1008 160.552 30.389C160.045 30.6772 159.648 31.0978 159.36 31.6508C159.08 32.196 158.935 32.8542 158.928 33.6253ZM182.104 44.3388C180.959 44.3388 179.939 44.1402 179.043 43.743C178.148 43.3379 177.439 42.7421 176.917 41.9554C176.403 41.161 176.146 40.1718 176.146 38.9879C176.146 37.9909 176.329 37.1536 176.695 36.476C177.061 35.7984 177.56 35.2531 178.19 34.8403C178.821 34.4275 179.538 34.116 180.34 33.9057C181.15 33.6954 181.999 33.5474 182.887 33.4617C183.931 33.3527 184.772 33.2514 185.411 33.158C186.049 33.0567 186.513 32.9087 186.801 32.714C187.089 32.5193 187.233 32.2311 187.233 31.8494V31.7793C187.233 31.0394 187 30.4669 186.532 30.0619C186.073 29.6569 185.418 29.4544 184.569 29.4544C183.674 29.4544 182.961 29.653 182.431 30.0502C181.902 30.4397 181.551 30.9303 181.38 31.5223L176.777 31.1484C177.01 30.058 177.47 29.1156 178.155 28.3211C178.841 27.5188 179.725 26.9035 180.807 26.4751C181.898 26.039 183.16 25.8209 184.593 25.8209C185.59 25.8209 186.544 25.9377 187.455 26.1714C188.374 26.405 189.188 26.7672 189.897 27.2579C190.614 27.7486 191.178 28.3795 191.591 29.1506C192.004 29.9139 192.21 30.8291 192.21 31.8962V44H187.49V41.5115H187.35C187.062 42.0723 186.676 42.5669 186.193 42.9952C185.711 43.4158 185.13 43.7469 184.453 43.9883C183.775 44.222 182.992 44.3388 182.104 44.3388ZM183.53 40.9039C184.262 40.9039 184.908 40.7598 185.469 40.4717C186.03 40.1757 186.47 39.7785 186.789 39.28C187.109 38.7815 187.268 38.2168 187.268 37.5859V35.6815C187.113 35.7828 186.898 35.8763 186.626 35.9619C186.361 36.0398 186.061 36.1138 185.726 36.1839C185.391 36.2462 185.056 36.3046 184.721 36.3592C184.386 36.4059 184.083 36.4487 183.81 36.4877C183.226 36.5734 182.716 36.7097 182.28 36.8966C181.843 37.0835 181.505 37.3367 181.263 37.656C181.022 37.9676 180.901 38.357 180.901 38.8243C180.901 39.502 181.146 40.0199 181.637 40.3782C182.135 40.7287 182.766 40.9039 183.53 40.9039ZM203.759 44.3388C202.614 44.3388 201.594 44.1402 200.698 43.743C199.802 43.3379 199.094 42.7421 198.572 41.9554C198.058 41.161 197.801 40.1718 197.801 38.9879C197.801 37.9909 197.984 37.1536 198.35 36.476C198.716 35.7984 199.214 35.2531 199.845 34.8403C200.476 34.4275 201.193 34.116 201.995 33.9057C202.805 33.6954 203.654 33.5474 204.542 33.4617C205.586 33.3527 206.427 33.2514 207.066 33.158C207.704 33.0567 208.168 32.9087 208.456 32.714C208.744 32.5193 208.888 32.2311 208.888 31.8494V31.7793C208.888 31.0394 208.654 30.4669 208.187 30.0619C207.728 29.6569 207.073 29.4544 206.224 29.4544C205.329 29.4544 204.616 29.653 204.086 30.0502C203.557 30.4397 203.206 30.9303 203.035 31.5223L198.432 31.1484C198.665 30.058 199.125 29.1156 199.81 28.3211C200.496 27.5188 201.38 26.9035 202.462 26.4751C203.553 26.039 204.815 25.8209 206.248 25.8209C207.245 25.8209 208.199 25.9377 209.11 26.1714C210.029 26.405 210.843 26.7672 211.552 27.2579C212.268 27.7486 212.833 28.3795 213.246 29.1506C213.659 29.9139 213.865 30.8291 213.865 31.8962V44H209.145V41.5115H209.005C208.717 42.0723 208.331 42.5669 207.848 42.9952C207.365 43.4158 206.785 43.7469 206.108 43.9883C205.43 44.222 204.647 44.3388 203.759 44.3388ZM205.185 40.9039C205.917 40.9039 206.563 40.7598 207.124 40.4717C207.685 40.1757 208.125 39.7785 208.444 39.28C208.764 38.7815 208.923 38.2168 208.923 37.5859V35.6815C208.767 35.7828 208.553 35.8763 208.281 35.9619C208.016 36.0398 207.716 36.1138 207.381 36.1839C207.046 36.2462 206.711 36.3046 206.376 36.3592C206.041 36.4059 205.738 36.4487 205.465 36.4877C204.881 36.5734 204.371 36.7097 203.934 36.8966C203.498 37.0835 203.159 37.3367 202.918 37.656C202.677 37.9676 202.556 38.357 202.556 38.8243C202.556 39.502 202.801 40.0199 203.292 40.3782C203.79 40.7287 204.421 40.9039 205.185 40.9039ZM225.274 33.6253V44H220.297V26.0545H225.04V29.2207H225.25C225.648 28.177 226.314 27.3514 227.248 26.7439C228.183 26.1285 229.316 25.8209 230.648 25.8209C231.894 25.8209 232.981 26.0935 233.908 26.6387C234.835 27.1839 235.555 27.9628 236.069 28.9754C236.583 29.9801 236.84 31.1796 236.84 32.5738V44H231.863V33.4617C231.871 32.3635 231.591 31.5067 231.022 30.8914C230.453 30.2683 229.671 29.9567 228.674 29.9567C228.004 29.9567 227.412 30.1008 226.898 30.389C226.392 30.6772 225.994 31.0978 225.706 31.6508C225.426 32.196 225.282 32.8542 225.274 33.6253ZM252.7 24.2436V20.0727H272.351V24.2436H265.026V44H260.026V24.2436H252.7ZM280.74 44.3388C279.595 44.3388 278.575 44.1402 277.679 43.743C276.783 43.3379 276.075 42.7421 275.553 41.9554C275.039 41.161 274.782 40.1718 274.782 38.9879C274.782 37.9909 274.965 37.1536 275.331 36.476C275.697 35.7984 276.195 35.2531 276.826 34.8403C277.457 34.4275 278.174 34.116 278.976 33.9057C279.786 33.6954 280.635 33.5474 281.523 33.4617C282.567 33.3527 283.408 33.2514 284.046 33.158C284.685 33.0567 285.149 32.9087 285.437 32.714C285.725 32.5193 285.869 32.2311 285.869 31.8494V31.7793C285.869 31.0394 285.635 30.4669 285.168 30.0619C284.708 29.6569 284.054 29.4544 283.205 29.4544C282.309 29.4544 281.597 29.653 281.067 30.0502C280.538 30.4397 280.187 30.9303 280.016 31.5223L275.412 31.1484C275.646 30.058 276.106 29.1156 276.791 28.3211C277.477 27.5188 278.361 26.9035 279.443 26.4751C280.534 26.039 281.795 25.8209 283.229 25.8209C284.226 25.8209 285.18 25.9377 286.091 26.1714C287.01 26.405 287.824 26.7672 288.533 27.2579C289.249 27.7486 289.814 28.3795 290.227 29.1506C290.64 29.9139 290.846 30.8291 290.846 31.8962V44H286.126V41.5115H285.986C285.698 42.0723 285.312 42.5669 284.829 42.9952C284.346 43.4158 283.766 43.7469 283.088 43.9883C282.411 44.222 281.628 44.3388 280.74 44.3388ZM282.165 40.9039C282.898 40.9039 283.544 40.7598 284.105 40.4717C284.666 40.1757 285.106 39.7785 285.425 39.28C285.744 38.7815 285.904 38.2168 285.904 37.5859V35.6815C285.748 35.7828 285.534 35.8763 285.261 35.9619C284.997 36.0398 284.697 36.1138 284.362 36.1839C284.027 36.2462 283.692 36.3046 283.357 36.3592C283.022 36.4059 282.718 36.4487 282.446 36.4877C281.862 36.5734 281.351 36.7097 280.915 36.8966C280.479 37.0835 280.14 37.3367 279.899 37.656C279.657 37.9676 279.537 38.357 279.537 38.8243C279.537 39.502 279.782 40.0199 280.273 40.3782C280.771 40.7287 281.402 40.9039 282.165 40.9039ZM297.278 44V26.0545H302.255V44H297.278ZM299.778 23.7413C299.038 23.7413 298.403 23.4959 297.874 23.0052C297.352 22.5067 297.091 21.9109 297.091 21.2177C297.091 20.5323 297.352 19.9442 297.874 19.4535C298.403 18.955 299.038 18.7058 299.778 18.7058C300.518 18.7058 301.149 18.955 301.671 19.4535C302.2 19.9442 302.465 20.5323 302.465 21.2177C302.465 21.9109 302.2 22.5067 301.671 23.0052C301.149 23.4959 300.518 23.7413 299.778 23.7413ZM312.352 44L307.468 26.0545H312.504L315.284 38.1116H315.448L318.345 26.0545H323.287L326.232 38.0415H326.384L329.117 26.0545H334.141L329.269 44H324L320.916 32.714H320.694L317.609 44H312.352ZM344.484 44.3388C343.339 44.3388 342.319 44.1402 341.423 43.743C340.527 43.3379 339.818 42.7421 339.296 41.9554C338.782 41.161 338.525 40.1718 338.525 38.9879C338.525 37.9909 338.708 37.1536 339.074 36.476C339.441 35.7984 339.939 35.2531 340.57 34.8403C341.201 34.4275 341.917 34.116 342.72 33.9057C343.53 33.6954 344.379 33.5474 345.267 33.4617C346.31 33.3527 347.151 33.2514 347.79 33.158C348.429 33.0567 348.892 32.9087 349.18 32.714C349.469 32.5193 349.613 32.2311 349.613 31.8494V31.7793C349.613 31.0394 349.379 30.4669 348.912 30.0619C348.452 29.6569 347.798 29.4544 346.949 29.4544C346.053 29.4544 345.341 29.653 344.811 30.0502C344.281 30.4397 343.931 30.9303 343.759 31.5223L339.156 31.1484C339.39 30.058 339.849 29.1156 340.535 28.3211C341.22 27.5188 342.104 26.9035 343.187 26.4751C344.277 26.039 345.539 25.8209 346.972 25.8209C347.969 25.8209 348.923 25.9377 349.835 26.1714C350.754 26.405 351.568 26.7672 352.277 27.2579C352.993 27.7486 353.558 28.3795 353.971 29.1506C354.383 29.9139 354.59 30.8291 354.59 31.8962V44H349.87V41.5115H349.73C349.441 42.0723 349.056 42.5669 348.573 42.9952C348.09 43.4158 347.51 43.7469 346.832 43.9883C346.154 44.222 345.372 44.3388 344.484 44.3388ZM345.909 40.9039C346.641 40.9039 347.288 40.7598 347.849 40.4717C348.409 40.1757 348.849 39.7785 349.169 39.28C349.488 38.7815 349.648 38.2168 349.648 37.5859V35.6815C349.492 35.7828 349.278 35.8763 349.005 35.9619C348.74 36.0398 348.441 36.1138 348.106 36.1839C347.771 36.2462 347.436 36.3046 347.101 36.3592C346.766 36.4059 346.462 36.4487 346.19 36.4877C345.605 36.5734 345.095 36.7097 344.659 36.8966C344.223 37.0835 343.884 37.3367 343.643 37.656C343.401 37.9676 343.28 38.357 343.28 38.8243C343.28 39.502 343.526 40.0199 344.016 40.3782C344.515 40.7287 345.146 40.9039 345.909 40.9039ZM365.998 33.6253V44H361.021V26.0545H365.765V29.2207H365.975C366.372 28.177 367.038 27.3514 367.973 26.7439C368.908 26.1285 370.041 25.8209 371.373 25.8209C372.619 25.8209 373.706 26.0935 374.632 26.6387C375.559 27.1839 376.28 27.9628 376.794 28.9754C377.308 29.9801 377.565 31.1796 377.565 32.5738V44H372.588V33.4617C372.596 32.3635 372.315 31.5067 371.747 30.8914C371.178 30.2683 370.395 29.9567 369.398 29.9567C368.728 29.9567 368.137 30.1008 367.622 30.389C367.116 30.6772 366.719 31.0978 366.431 31.6508C366.15 32.196 366.006 32.8542 365.998 33.6253ZM392.236 44.3505C390.39 44.3505 388.801 43.9766 387.469 43.2289C386.145 42.4734 385.125 41.4063 384.408 40.0277C383.692 38.6413 383.333 37.0017 383.333 35.1091C383.333 33.2631 383.692 31.643 384.408 30.2488C385.125 28.8546 386.134 27.7681 387.434 26.9892C388.743 26.2103 390.277 25.8209 392.037 25.8209C393.221 25.8209 394.324 26.0117 395.344 26.3934C396.372 26.7672 397.268 27.3319 398.031 28.0874C398.802 28.8429 399.402 29.7932 399.83 30.9381C400.259 32.0753 400.473 33.4072 400.473 34.9338V36.3007H385.32V33.2164H395.788C395.788 32.4998 395.632 31.865 395.32 31.312C395.009 30.759 394.577 30.3267 394.024 30.0152C393.478 29.6958 392.844 29.5361 392.119 29.5361C391.364 29.5361 390.694 29.7114 390.11 30.0619C389.533 30.4046 389.082 30.868 388.754 31.4522C388.427 32.0286 388.26 32.6712 388.252 33.3799V36.3124C388.252 37.2004 388.416 37.9676 388.743 38.614C389.078 39.2605 389.549 39.759 390.156 40.1095C390.764 40.46 391.484 40.6352 392.318 40.6352C392.871 40.6352 393.377 40.5573 393.837 40.4016C394.296 40.2458 394.69 40.0121 395.017 39.7006C395.344 39.389 395.593 39.0074 395.764 38.5556L400.368 38.8594C400.134 39.9654 399.655 40.9312 398.931 41.7568C398.214 42.5746 397.287 43.2133 396.15 43.6729C395.021 44.1246 393.716 44.3505 392.236 44.3505ZM421.222 31.1718L416.666 31.4522C416.588 31.0628 416.42 30.7123 416.163 30.4007C415.906 30.0814 415.568 29.8282 415.147 29.6413C414.734 29.4466 414.24 29.3492 413.663 29.3492C412.892 29.3492 412.242 29.5128 411.712 29.8399C411.182 30.1593 410.918 30.5876 410.918 31.1251C410.918 31.5535 411.089 31.9156 411.432 32.2116C411.774 32.5076 412.362 32.7451 413.196 32.9243L416.444 33.5786C418.188 33.9368 419.489 34.5132 420.346 35.3077C421.203 36.1021 421.631 37.1458 421.631 38.4388C421.631 39.6149 421.285 40.6469 420.591 41.5348C419.906 42.4228 418.963 43.116 417.764 43.6145C416.572 44.1051 415.198 44.3505 413.64 44.3505C411.264 44.3505 409.372 43.8559 407.962 42.8667C406.56 41.8698 405.738 40.5145 405.497 38.801L410.392 38.5439C410.54 39.2683 410.898 39.8213 411.467 40.2029C412.035 40.5768 412.764 40.7637 413.651 40.7637C414.524 40.7637 415.225 40.5963 415.754 40.2614C416.292 39.9187 416.565 39.4786 416.572 38.9412C416.565 38.4894 416.374 38.1194 416 37.8312C415.626 37.5353 415.05 37.3094 414.271 37.1536L411.163 36.5344C409.41 36.1839 408.106 35.5764 407.249 34.7118C406.4 33.8473 405.976 32.7451 405.976 31.4055C405.976 30.2527 406.287 29.2596 406.91 28.4262C407.541 27.5928 408.425 26.9503 409.562 26.4985C410.707 26.0468 412.047 25.8209 413.581 25.8209C415.848 25.8209 417.632 26.2999 418.932 27.2579C420.241 28.2159 421.004 29.5206 421.222 31.1718ZM435.514 44.3505C433.668 44.3505 432.079 43.9766 430.747 43.2289C429.423 42.4734 428.403 41.4063 427.686 40.0277C426.969 38.6413 426.611 37.0017 426.611 35.1091C426.611 33.2631 426.969 31.643 427.686 30.2488C428.403 28.8546 429.411 27.7681 430.712 26.9892C432.02 26.2103 433.555 25.8209 435.315 25.8209C436.499 25.8209 437.601 26.0117 438.621 26.3934C439.65 26.7672 440.545 27.3319 441.309 28.0874C442.08 28.8429 442.679 29.7932 443.108 30.9381C443.536 32.0753 443.75 33.4072 443.75 34.9338V36.3007H428.597V33.2164H439.065C439.065 32.4998 438.91 31.865 438.598 31.312C438.287 30.759 437.854 30.3267 437.301 30.0152C436.756 29.6958 436.121 29.5361 435.397 29.5361C434.641 29.5361 433.972 29.7114 433.387 30.0619C432.811 30.4046 432.359 30.868 432.032 31.4522C431.705 32.0286 431.538 32.6712 431.53 33.3799V36.3124C431.53 37.2004 431.693 37.9676 432.02 38.614C432.355 39.2605 432.827 39.759 433.434 40.1095C434.042 40.46 434.762 40.6352 435.596 40.6352C436.149 40.6352 436.655 40.5573 437.114 40.4016C437.574 40.2458 437.967 40.0121 438.294 39.7006C438.621 39.389 438.871 39.0074 439.042 38.5556L443.645 38.8594C443.412 39.9654 442.933 40.9312 442.208 41.7568C441.492 42.5746 440.565 43.2133 439.428 43.6729C438.298 44.1246 436.994 44.3505 435.514 44.3505ZM126.191 66.4496H121.074C120.981 65.7876 120.79 65.1995 120.501 64.6854C120.213 64.1636 119.843 63.7196 119.392 63.3535C118.94 62.9875 118.418 62.7071 117.826 62.5124C117.242 62.3176 116.607 62.2203 115.922 62.2203C114.683 62.2203 113.604 62.5279 112.685 63.1433C111.766 63.7508 111.054 64.6387 110.547 65.807C110.041 66.9676 109.788 68.3773 109.788 70.0364C109.788 71.7421 110.041 73.1753 110.547 74.3358C111.061 75.4963 111.778 76.3726 112.697 76.9645C113.616 77.5565 114.679 77.8525 115.887 77.8525C116.564 77.8525 117.191 77.7629 117.768 77.5837C118.352 77.4046 118.87 77.1437 119.321 76.801C119.773 76.4505 120.147 76.026 120.443 75.5275C120.747 75.029 120.957 74.4604 121.074 73.8217L126.191 73.8451C126.059 74.9433 125.728 76.0026 125.198 77.0229C124.676 78.0355 123.971 78.9429 123.083 79.7451C122.203 80.5396 121.152 81.1705 119.929 81.6378C118.714 82.0974 117.339 82.3271 115.805 82.3271C113.671 82.3271 111.762 81.8442 110.08 80.8784C108.405 79.9126 107.081 78.5145 106.108 76.6841C105.142 74.8538 104.659 72.6378 104.659 70.0364C104.659 67.4271 105.15 65.2073 106.131 63.3769C107.113 61.5465 108.444 60.1523 110.127 59.1943C111.809 58.2285 113.702 57.7456 115.805 57.7456C117.191 57.7456 118.476 57.9403 119.66 58.3298C120.852 58.7192 121.907 59.2878 122.826 60.0355C123.746 60.7754 124.493 61.6828 125.07 62.7577C125.654 63.8326 126.028 65.0632 126.191 66.4496ZM137.273 71.6253V82H132.296V58.0727H137.133V67.2207H137.343C137.748 66.1614 138.402 65.3319 139.306 64.7322C140.209 64.1246 141.342 63.8209 142.705 63.8209C143.952 63.8209 145.038 64.0935 145.965 64.6387C146.9 65.1761 147.624 65.9511 148.138 66.9637C148.66 67.9684 148.917 69.1718 148.909 70.5738V82H143.932V71.4617C143.94 70.3557 143.66 69.495 143.091 68.8797C142.53 68.2644 141.744 67.9567 140.731 67.9567C140.053 67.9567 139.454 68.1008 138.932 68.389C138.418 68.6772 138.013 69.0978 137.717 69.6508C137.429 70.196 137.281 70.8542 137.273 71.6253ZM155.396 82V64.0545H160.222V67.1857H160.409C160.736 66.0718 161.285 65.2307 162.056 64.6621C162.827 64.0857 163.715 63.7975 164.72 63.7975C164.969 63.7975 165.238 63.8131 165.526 63.8442C165.814 63.8754 166.067 63.9182 166.285 63.9728V68.389C166.052 68.3189 165.728 68.2566 165.315 68.2021C164.903 68.1476 164.525 68.1203 164.182 68.1203C163.45 68.1203 162.796 68.28 162.219 68.5993C161.651 68.9109 161.199 69.3471 160.864 69.9078C160.537 70.4686 160.373 71.1151 160.373 71.8473V82H155.396ZM171.429 82V64.0545H176.406V82H171.429ZM173.929 61.7413C173.189 61.7413 172.554 61.4959 172.025 61.0052C171.503 60.5067 171.242 59.9109 171.242 59.2177C171.242 58.5323 171.503 57.9442 172.025 57.4535C172.554 56.955 173.189 56.7058 173.929 56.7058C174.669 56.7058 175.3 56.955 175.822 57.4535C176.351 57.9442 176.616 58.5323 176.616 59.2177C176.616 59.9109 176.351 60.5067 175.822 61.0052C175.3 61.4959 174.669 61.7413 173.929 61.7413ZM197.894 69.1718L193.338 69.4522C193.26 69.0628 193.092 68.7123 192.835 68.4007C192.578 68.0814 192.24 67.8282 191.819 67.6413C191.406 67.4466 190.912 67.3492 190.335 67.3492C189.564 67.3492 188.914 67.5128 188.384 67.8399C187.854 68.1593 187.59 68.5876 187.59 69.1251C187.59 69.5535 187.761 69.9156 188.104 70.2116C188.446 70.5076 189.034 70.7451 189.868 70.9243L193.116 71.5786C194.86 71.9368 196.161 72.5132 197.018 73.3077C197.875 74.1021 198.303 75.1458 198.303 76.4388C198.303 77.6149 197.957 78.6469 197.263 79.5348C196.578 80.4228 195.635 81.116 194.436 81.6145C193.244 82.1051 191.87 82.3505 190.312 82.3505C187.936 82.3505 186.043 81.8559 184.634 80.8667C183.232 79.8698 182.41 78.5145 182.169 76.801L187.064 76.5439C187.212 77.2683 187.57 77.8213 188.139 78.2029C188.707 78.5768 189.436 78.7637 190.323 78.7637C191.196 78.7637 191.897 78.5963 192.426 78.2614C192.964 77.9187 193.236 77.4786 193.244 76.9412C193.236 76.4894 193.046 76.1194 192.672 75.8312C192.298 75.5353 191.722 75.3094 190.943 75.1536L187.835 74.5344C186.082 74.1839 184.778 73.5764 183.921 72.7118C183.072 71.8473 182.648 70.7451 182.648 69.4055C182.648 68.2527 182.959 67.2596 183.582 66.4262C184.213 65.5928 185.097 64.9503 186.234 64.4985C187.379 64.0468 188.719 63.8209 190.253 63.8209C192.52 63.8209 194.304 64.2999 195.604 65.2579C196.913 66.2159 197.676 67.5206 197.894 69.1718ZM213.553 64.0545V67.7932H202.746V64.0545H213.553ZM205.199 59.7551H210.176V76.4855C210.176 76.9451 210.246 77.3033 210.386 77.5604C210.527 77.8096 210.721 77.9849 210.971 78.0861C211.228 78.1874 211.524 78.238 211.859 78.238C212.092 78.238 212.326 78.2185 212.56 78.1796C212.793 78.1328 212.972 78.0978 213.097 78.0744L213.88 81.778C213.631 81.8559 213.28 81.9455 212.828 82.0467C212.377 82.1558 211.827 82.222 211.181 82.2453C209.981 82.2921 208.93 82.1324 208.026 81.7663C207.131 81.4003 206.434 80.8317 205.935 80.0606C205.437 79.2895 205.191 78.3159 205.199 77.1398V59.7551ZM219.365 82V64.0545H224.342V82H219.365ZM221.865 61.7413C221.125 61.7413 220.491 61.4959 219.961 61.0052C219.439 60.5067 219.178 59.9109 219.178 59.2177C219.178 58.5323 219.439 57.9442 219.961 57.4535C220.491 56.955 221.125 56.7058 221.865 56.7058C222.605 56.7058 223.236 56.955 223.758 57.4535C224.288 57.9442 224.552 58.5323 224.552 59.2177C224.552 59.9109 224.288 60.5067 223.758 61.0052C223.236 61.4959 222.605 61.7413 221.865 61.7413ZM236.017 82.3388C234.872 82.3388 233.851 82.1402 232.956 81.743C232.06 81.3379 231.351 80.7421 230.829 79.9554C230.315 79.161 230.058 78.1718 230.058 76.9879C230.058 75.9909 230.241 75.1536 230.607 74.476C230.973 73.7984 231.472 73.2531 232.103 72.8403C232.734 72.4275 233.45 72.116 234.252 71.9057C235.062 71.6954 235.911 71.5474 236.799 71.4617C237.843 71.3527 238.684 71.2514 239.323 71.158C239.962 71.0567 240.425 70.9087 240.713 70.714C241.001 70.5193 241.146 70.2311 241.146 69.8494V69.7793C241.146 69.0394 240.912 68.4669 240.445 68.0619C239.985 67.6569 239.331 67.4544 238.482 67.4544C237.586 67.4544 236.873 67.653 236.344 68.0502C235.814 68.4397 235.464 68.9303 235.292 69.5223L230.689 69.1484C230.923 68.058 231.382 67.1156 232.068 66.3211C232.753 65.5188 233.637 64.9035 234.72 64.4751C235.81 64.039 237.072 63.8209 238.505 63.8209C239.502 63.8209 240.456 63.9377 241.368 64.1714C242.287 64.405 243.101 64.7672 243.809 65.2579C244.526 65.7486 245.091 66.3795 245.503 67.1506C245.916 67.9139 246.123 68.8291 246.123 69.8962V82H241.403V79.5115H241.262C240.974 80.0723 240.589 80.5669 240.106 80.9952C239.623 81.4158 239.043 81.7469 238.365 81.9883C237.687 82.222 236.905 82.3388 236.017 82.3388ZM237.442 78.9039C238.174 78.9039 238.821 78.7598 239.381 78.4717C239.942 78.1757 240.382 77.7785 240.702 77.28C241.021 76.7815 241.181 76.2168 241.181 75.5859V73.6815C241.025 73.7828 240.811 73.8763 240.538 73.9619C240.273 74.0398 239.973 74.1138 239.638 74.1839C239.303 74.2462 238.969 74.3046 238.634 74.3592C238.299 74.4059 237.995 74.4487 237.722 74.4877C237.138 74.5734 236.628 74.7097 236.192 74.8966C235.756 75.0835 235.417 75.3367 235.175 75.656C234.934 75.9676 234.813 76.357 234.813 76.8243C234.813 77.502 235.059 78.0199 235.549 78.3782C236.048 78.7287 236.679 78.9039 237.442 78.9039ZM257.531 71.6253V82H252.554V64.0545H257.298V67.2207H257.508C257.905 66.177 258.571 65.3514 259.506 64.7439C260.44 64.1285 261.574 63.8209 262.906 63.8209C264.152 63.8209 265.238 64.0935 266.165 64.6387C267.092 65.1839 267.813 65.9628 268.327 66.9754C268.841 67.9801 269.098 69.1796 269.098 70.5738V82H264.121V71.4617C264.128 70.3635 263.848 69.5067 263.279 68.8914C262.711 68.2683 261.928 67.9567 260.931 67.9567C260.261 67.9567 259.669 68.1008 259.155 68.389C258.649 68.6772 258.252 69.0978 257.964 69.6508C257.683 70.196 257.539 70.8542 257.531 71.6253ZM306.981 66.4496H301.863C301.77 65.7876 301.579 65.1995 301.291 64.6854C301.003 64.1636 300.633 63.7196 300.181 63.3535C299.729 62.9875 299.207 62.7071 298.615 62.5124C298.031 62.3176 297.396 62.2203 296.711 62.2203C295.473 62.2203 294.394 62.5279 293.475 63.1433C292.556 63.7508 291.843 64.6387 291.337 65.807C290.83 66.9676 290.577 68.3773 290.577 70.0364C290.577 71.7421 290.83 73.1753 291.337 74.3358C291.851 75.4963 292.567 76.3726 293.486 76.9645C294.406 77.5565 295.469 77.8525 296.676 77.8525C297.354 77.8525 297.981 77.7629 298.557 77.5837C299.141 77.4046 299.659 77.1437 300.111 76.801C300.563 76.4505 300.936 76.026 301.232 75.5275C301.536 75.029 301.747 74.4604 301.863 73.8217L306.981 73.8451C306.848 74.9433 306.517 76.0026 305.988 77.0229C305.466 78.0355 304.761 78.9429 303.873 79.7451C302.993 80.5396 301.941 81.1705 300.718 81.6378C299.503 82.0974 298.129 82.3271 296.594 82.3271C294.46 82.3271 292.552 81.8442 290.869 80.8784C289.195 79.9126 287.871 78.5145 286.897 76.6841C285.931 74.8538 285.448 72.6378 285.448 70.0364C285.448 67.4271 285.939 65.2073 286.92 63.3769C287.902 61.5465 289.234 60.1523 290.916 59.1943C292.599 58.2285 294.491 57.7456 296.594 57.7456C297.981 57.7456 299.266 57.9403 300.45 58.3298C301.641 58.7192 302.697 59.2878 303.616 60.0355C304.535 60.7754 305.283 61.6828 305.859 62.7577C306.443 63.8326 306.817 65.0632 306.981 66.4496ZM318.062 71.6253V82H313.085V58.0727H317.922V67.2207H318.132C318.537 66.1614 319.192 65.3319 320.095 64.7322C320.999 64.1246 322.132 63.8209 323.495 63.8209C324.741 63.8209 325.828 64.0935 326.754 64.6387C327.689 65.1761 328.413 65.9511 328.928 66.9637C329.449 67.9684 329.706 69.1718 329.699 70.5738V82H324.722V71.4617C324.729 70.3557 324.449 69.495 323.88 68.8797C323.32 68.2644 322.533 67.9567 321.52 67.9567C320.843 67.9567 320.243 68.1008 319.721 68.389C319.207 68.6772 318.802 69.0978 318.506 69.6508C318.218 70.196 318.07 70.8542 318.062 71.6253ZM347.694 74.3592V64.0545H352.671V82H347.892V78.7404H347.705C347.3 79.7919 346.627 80.637 345.684 81.2756C344.75 81.9143 343.609 82.2337 342.261 82.2337C341.062 82.2337 340.006 81.9611 339.095 81.4158C338.184 80.8706 337.471 80.0956 336.957 79.0909C336.451 78.0861 336.194 76.8827 336.186 75.4808V64.0545H341.163V74.5928C341.171 75.6521 341.455 76.4894 342.016 77.1047C342.576 77.72 343.328 78.0277 344.271 78.0277C344.87 78.0277 345.431 77.8914 345.953 77.6188C346.475 77.3384 346.895 76.9256 347.215 76.3804C347.542 75.8351 347.702 75.1614 347.694 74.3592ZM359.222 82V64.0545H364.047V67.1857H364.234C364.561 66.0718 365.111 65.2307 365.882 64.6621C366.653 64.0857 367.541 63.7975 368.545 63.7975C368.795 63.7975 369.063 63.8131 369.352 63.8442C369.64 63.8754 369.893 63.9182 370.111 63.9728V68.389C369.877 68.3189 369.554 68.2566 369.141 68.2021C368.728 68.1476 368.351 68.1203 368.008 68.1203C367.276 68.1203 366.622 68.28 366.045 68.5993C365.477 68.9109 365.025 69.3471 364.69 69.9078C364.363 70.4686 364.199 71.1151 364.199 71.8473V82H359.222ZM382.527 82.3505C380.689 82.3505 379.108 81.9611 377.784 81.1822C376.468 80.3955 375.455 79.3051 374.746 77.9109C374.045 76.5167 373.695 74.9122 373.695 73.0974C373.695 71.2592 374.049 69.6469 374.758 68.2605C375.475 66.8663 376.491 65.7798 377.807 65.0009C379.124 64.2142 380.689 63.8209 382.504 63.8209C384.07 63.8209 385.44 64.1052 386.616 64.6738C387.793 65.2423 388.723 66.0407 389.409 67.0688C390.094 68.0969 390.472 69.3042 390.542 70.6906H385.845C385.713 69.7949 385.362 69.0744 384.794 68.5292C384.233 67.9762 383.497 67.6997 382.586 67.6997C381.815 67.6997 381.141 67.91 380.565 68.3306C379.996 68.7434 379.552 69.3471 379.233 70.1415C378.913 70.936 378.754 71.8979 378.754 73.0273C378.754 74.1722 378.909 75.1458 379.221 75.9481C379.54 76.7503 379.988 77.3618 380.565 77.7824C381.141 78.2029 381.815 78.4132 382.586 78.4132C383.154 78.4132 383.665 78.2964 384.116 78.0627C384.576 77.8291 384.954 77.4903 385.25 77.0463C385.553 76.5946 385.752 76.0532 385.845 75.4223H390.542C390.464 76.7932 390.09 78.0004 389.42 79.0441C388.758 80.0801 387.843 80.8901 386.675 81.4743C385.507 82.0584 384.124 82.3505 382.527 82.3505ZM401.276 71.6253V82H396.299V58.0727H401.136V67.2207H401.346C401.751 66.1614 402.405 65.3319 403.309 64.7322C404.212 64.1246 405.346 63.8209 406.709 63.8209C407.955 63.8209 409.041 64.0935 409.968 64.6387C410.903 65.1761 411.627 65.9511 412.141 66.9637C412.663 67.9684 412.92 69.1718 412.913 70.5738V82H407.935V71.4617C407.943 70.3557 407.663 69.495 407.094 68.8797C406.533 68.2644 405.747 67.9567 404.734 67.9567C404.057 67.9567 403.457 68.1008 402.935 68.389C402.421 68.6772 402.016 69.0978 401.72 69.6508C401.432 70.196 401.284 70.8542 401.276 71.6253Z" fill="#1E1E1E"/>
</g>
<defs>
<clipPath id="clip0_2_36">
<rect width="454" height="100" fill="white"/>
</clipPath>
</defs>
</svg>
