<svg width="454" height="100" viewBox="0 0 454 100" fill="none" xmlns="http://www.w3.org/2000/svg">
<g clip-path="url(#clip0_4_8)">
<path d="M5 5H95.359V95H5V5Z" fill="#563C71"/>
<path d="M59.121 56.008L56.543 60.453C58.719 62.312 59.965 64.957 59.965 67.816C59.965 73.191 55.574 77.562 50.18 77.562C44.785 77.562 40.398 73.191 40.398 67.816C40.398 64.957 41.644 62.312 43.82 60.453L41.242 56.008C39.957 56.598 38.598 56.91 37.183 56.91C31.789 56.91 27.402 52.539 27.402 47.164C27.402 44.562 28.418 42.113 30.269 40.273C32.113 38.434 34.57 37.422 37.183 37.422C42.23 37.422 46.508 41.34 46.926 46.348L46.875 46.437H53.484L53.437 46.348C53.855 41.34 58.133 37.422 63.176 37.422C68.57 37.422 72.961 41.793 72.961 47.164C72.961 52.539 68.57 56.91 63.176 56.91C61.765 56.91 60.406 56.598 59.121 56.008ZM50.316 41.348C50.273 41.441 50.223 41.535 50.18 41.629C50.141 41.535 50.09 41.441 50.047 41.348H50.316ZM77.34 47.164C77.34 39.387 70.984 33.059 63.176 33.059C58.883 33.059 54.98 35.027 52.363 38.117V29.859H61.418V25.496H52.363V18.078H47.984V25.496H38.93V29.859H47.984V38.105C45.371 35.019 41.473 33.059 37.183 33.059C29.375 33.059 23.019 39.387 23.019 47.164C23.019 54.945 29.375 61.273 37.183 61.273C37.348 61.273 37.5 61.25 37.66 61.246C36.601 63.238 36.015 65.477 36.015 67.816C36.015 75.598 42.371 81.926 50.18 81.926C57.992 81.926 64.344 75.598 64.344 67.816C64.344 65.477 63.762 63.238 62.699 61.246C62.859 61.25 63.015 61.273 63.176 61.273C70.984 61.273 77.34 54.945 77.34 47.164Z" fill="white"/>
<path d="M115.331 47.719V60.6232H110.869V51.9802H106.769V47.719H115.331ZM107.894 33.046L111.03 29.9908C111.754 30.4196 112.504 30.9154 113.281 31.4782C114.058 32.041 114.782 32.6172 115.452 33.2068C116.122 33.7696 116.671 34.3056 117.1 34.8148L113.764 38.1916C113.415 37.6556 112.906 37.0928 112.236 36.5032C111.593 35.8868 110.883 35.2704 110.105 34.654C109.355 34.0376 108.618 33.5016 107.894 33.046ZM106.608 41.4478L109.663 38.3122C110.414 38.7142 111.191 39.1832 111.995 39.7192C112.799 40.2552 113.549 40.8046 114.246 41.3674C114.97 41.9302 115.546 42.4528 115.975 42.9352L112.718 46.3924C112.343 45.8832 111.807 45.3338 111.11 44.7442C110.44 44.1546 109.703 43.565 108.899 42.9754C108.122 42.3858 107.358 41.8766 106.608 41.4478ZM116.618 35.1766H126.869V39.3574H116.618V35.1766ZM119.512 30.232H123.613C123.586 34.654 123.479 38.741 123.291 42.493C123.103 46.245 122.661 49.6084 121.964 52.5832C121.268 55.558 120.142 58.1174 118.588 60.2614C118.293 59.779 117.851 59.243 117.261 58.6534C116.671 58.037 116.122 57.5814 115.613 57.2866C116.926 55.4106 117.837 53.146 118.346 50.4928C118.882 47.8128 119.204 44.7844 119.311 41.4076C119.445 38.0308 119.512 34.3056 119.512 30.232ZM125.743 35.1766H129.683C129.683 35.1766 129.683 35.2972 129.683 35.5384C129.683 35.7528 129.683 36.0074 129.683 36.3022C129.683 36.5702 129.669 36.7846 129.643 36.9454C129.589 40.617 129.522 43.7392 129.442 46.312C129.388 48.858 129.308 50.9484 129.2 52.5832C129.093 54.218 128.959 55.491 128.798 56.4022C128.638 57.2866 128.437 57.9164 128.195 58.2916C127.847 58.8276 127.485 59.2162 127.11 59.4574C126.735 59.6986 126.293 59.8728 125.783 59.98C125.301 60.0604 124.752 60.114 124.135 60.1408C123.546 60.1408 122.902 60.1408 122.206 60.1408C122.179 59.5512 122.072 58.8812 121.884 58.1308C121.696 57.3536 121.442 56.697 121.12 56.161C121.656 56.1878 122.139 56.2146 122.567 56.2414C122.996 56.2682 123.345 56.2816 123.613 56.2816C123.881 56.2816 124.095 56.2414 124.256 56.161C124.417 56.0806 124.577 55.9064 124.738 55.6384C124.872 55.3972 124.993 54.888 125.1 54.1108C125.234 53.3336 125.328 52.1946 125.381 50.6938C125.462 49.193 125.529 47.25 125.582 44.8648C125.663 42.4528 125.716 39.5048 125.743 36.0208V35.1766ZM115.171 58.0102C115.948 59.4574 117.06 60.5428 118.507 61.2664C119.981 61.9632 121.79 62.3652 123.934 62.4724C125.167 62.5528 126.641 62.6064 128.356 62.6332C130.098 62.6332 131.921 62.6198 133.823 62.593C135.753 62.5394 137.629 62.4858 139.451 62.4322C141.301 62.3518 142.935 62.258 144.356 62.1508C144.195 62.4992 144.007 62.9414 143.793 63.4774C143.605 64.0134 143.431 64.5628 143.27 65.1256C143.11 65.6884 143.002 66.1976 142.949 66.6532C141.662 66.7336 140.188 66.7872 138.527 66.814C136.865 66.8408 135.15 66.8542 133.381 66.8542C131.639 66.881 129.937 66.881 128.276 66.8542C126.641 66.8542 125.194 66.8274 123.934 66.7738C121.442 66.6398 119.325 66.1976 117.583 65.4472C115.867 64.6968 114.407 63.5042 113.201 61.8694C112.45 62.727 111.673 63.5846 110.869 64.4422C110.092 65.2998 109.234 66.211 108.296 67.1758L105.884 62.6332C106.715 61.9632 107.586 61.2396 108.497 60.4624C109.409 59.6584 110.28 58.841 111.11 58.0102H115.171ZM135.311 36.865V55.6786H138.205V36.865H135.311ZM131.492 32.8048H142.265V59.7388H131.492V32.8048ZM150.278 33.1666H185.975V37.669H150.278V33.1666ZM159.122 50.4526H177.091V54.1912H159.122V50.4526ZM158.278 56.8444H177.976V60.7036H158.278V56.8444ZM165.715 52.3018H170.257V66.4522H165.715V52.3018ZM151.805 40.684H180.91V45.106H156.629V67.4974H151.805V40.684ZM179.543 40.684H184.488V62.6734C184.488 63.8258 184.327 64.7102 184.006 65.3266C183.684 65.9698 183.121 66.4522 182.317 66.7738C181.486 67.1222 180.468 67.3232 179.262 67.3768C178.083 67.4572 176.676 67.4974 175.041 67.4974C174.934 66.881 174.719 66.1842 174.398 65.407C174.103 64.6298 173.795 63.9598 173.473 63.397C174.143 63.4238 174.827 63.4506 175.523 63.4774C176.22 63.5042 176.85 63.5176 177.413 63.5176C178.002 63.4908 178.391 63.4774 178.579 63.4774C178.954 63.4774 179.208 63.4238 179.342 63.3166C179.476 63.1826 179.543 62.9682 179.543 62.6734V40.684ZM160.649 46.1914L164.468 45.0658C164.951 45.709 165.393 46.446 165.795 47.2768C166.224 48.1076 166.545 48.8312 166.76 49.4476L162.74 50.7742C162.579 50.131 162.298 49.3806 161.896 48.523C161.494 47.6654 161.078 46.8882 160.649 46.1914ZM171.986 45.1462L176.046 46.2718C175.51 47.2366 174.974 48.1746 174.438 49.0858C173.929 49.9702 173.433 50.7474 172.951 51.4174L169.534 50.3722C169.828 49.8898 170.123 49.3404 170.418 48.724C170.74 48.1076 171.034 47.4912 171.302 46.8748C171.57 46.2584 171.798 45.6822 171.986 45.1462ZM165.554 30.1114H170.82V43.8196H165.554V30.1114ZM193.345 31.84H229.082V34.855H193.345V31.84ZM193.626 63.5578H228.841V66.7738H193.626V63.5578ZM196.561 36.1414H225.786V38.9554H196.561V36.1414ZM198.008 51.538H223.937V54.1108H198.008V51.538ZM197.566 59.4172H225.304V62.2312H197.566V59.4172ZM193.747 47.3974H228.6V53.4274H224.057V50.4124H198.088V53.4274H193.747V47.3974ZM208.58 29.7898H213.445V37.9504H208.58V29.7898ZM208.58 56.9248H213.445V65.1658H208.58V56.9248ZM202.47 42.4528V43.8598H219.836V42.4528H202.47ZM198.048 40.1212H224.54V46.2316H198.048V40.1212ZM204.44 52.1812L209.505 52.9048C208.862 53.7624 208.192 54.5664 207.495 55.3168C206.798 56.0404 206.182 56.6702 205.646 57.2062L201.666 56.362C202.148 55.7456 202.644 55.0488 203.153 54.2716C203.689 53.4944 204.118 52.7976 204.44 52.1812ZM196.4 55.4374C198.517 55.4642 200.969 55.491 203.756 55.5178C206.57 55.5178 209.545 55.5178 212.681 55.5178C215.843 55.491 218.992 55.4776 222.128 55.4776L221.927 57.97C218.898 58.0236 215.843 58.0772 212.761 58.1308C209.706 58.1844 206.785 58.2246 203.998 58.2514C201.237 58.2514 198.772 58.2648 196.601 58.2916L196.4 55.4374ZM214.731 54.4324L217.505 52.342C218.496 52.744 219.515 53.2398 220.56 53.8294C221.632 54.3922 222.65 54.9818 223.615 55.5982C224.58 56.2146 225.384 56.7774 226.027 57.2866L223.213 59.6182C222.597 59.0822 221.806 58.4926 220.841 57.8494C219.903 57.2062 218.898 56.5898 217.826 56.0002C216.754 55.3838 215.723 54.8612 214.731 54.4324ZM254.541 30.5536H261.576V32.8048H254.541V30.5536ZM254.26 37.3876H261.938V39.5986H254.26V37.3876ZM254.26 40.5232H261.938V42.7342H254.26V40.5232ZM248.632 58.8946H268.531V61.8292H248.632V58.8946ZM253.094 33.85H262.742V36.3424H253.094V33.85ZM257.034 45.9502V47.719H259.044V45.9502H257.034ZM254.22 43.8196H261.938V49.8496H254.22V43.8196ZM249.155 54.9148H265.074V53.6284H246.582V50.8948H269.536V57.6082H249.155V54.9148ZM247.506 41.2468H250.562V50.2516H247.506V41.2468ZM243.527 39.7594C244.733 39.7058 246.099 39.6522 247.627 39.5986C249.181 39.545 250.816 39.478 252.531 39.3976L252.491 42.0508C250.937 42.1848 249.423 42.3054 247.949 42.4126C246.501 42.493 245.135 42.5868 243.848 42.694L243.527 39.7594ZM247.788 54.9148H252.21C251.915 56.2816 251.58 57.702 251.205 59.176C250.83 60.65 250.468 61.9364 250.119 63.0352L245.818 62.4322C246.193 61.387 246.555 60.181 246.903 58.8142C247.252 57.4474 247.547 56.1476 247.788 54.9148ZM266.963 58.8946H271.466C271.466 58.8946 271.452 59.109 271.425 59.5378C271.399 59.9666 271.332 60.315 271.224 60.583C270.903 62.2178 270.554 63.5042 270.179 64.4422C269.804 65.3802 269.335 66.077 268.772 66.5326C268.263 66.9078 267.714 67.1624 267.124 67.2964C266.534 67.4304 265.838 67.5242 265.034 67.5778C264.39 67.6046 263.493 67.6046 262.34 67.5778C261.188 67.551 259.982 67.5242 258.722 67.4974C258.695 66.9614 258.561 66.3584 258.32 65.6884C258.106 65.0452 257.824 64.469 257.476 63.9598C258.682 64.067 259.861 64.134 261.014 64.1608C262.193 64.2144 263.037 64.2412 263.546 64.2412C263.948 64.2412 264.283 64.2144 264.551 64.1608C264.819 64.134 265.06 64.0536 265.275 63.9196C265.596 63.6784 265.891 63.196 266.159 62.4724C266.454 61.7488 266.709 60.717 266.923 59.377L266.963 58.8946ZM250.722 44.0608L253.014 43.498C253.228 44.168 253.429 44.905 253.617 45.709C253.831 46.513 253.992 47.1964 254.099 47.7592L251.687 48.4426C251.607 47.853 251.473 47.1562 251.285 46.3522C251.124 45.5214 250.937 44.7576 250.722 44.0608ZM250.722 38.4328L252.773 37.669C253.121 38.3926 253.416 39.1966 253.657 40.081C253.925 40.9386 254.113 41.689 254.22 42.3322L251.969 43.1764C251.915 42.5332 251.768 41.7694 251.526 40.885C251.312 40.0006 251.044 39.1832 250.722 38.4328ZM243.929 35.3776L245.496 33.046C246.274 33.5552 247.051 34.1448 247.828 34.8148C248.605 35.458 249.208 36.0342 249.637 36.5434L247.949 39.2368C247.52 38.674 246.93 38.0308 246.18 37.3072C245.429 36.5836 244.679 35.9404 243.929 35.3776ZM247.908 29.6692L250.642 31.0762C250.079 31.9606 249.516 32.8584 248.954 33.7696C248.391 34.6808 247.868 35.4446 247.386 36.061L245.255 34.8952C245.711 34.1984 246.193 33.3542 246.702 32.3626C247.212 31.3442 247.614 30.4464 247.908 29.6692ZM250.642 33.1264L253.295 34.6942C252.357 35.9002 251.339 37.1598 250.24 38.473C249.168 39.7862 248.176 40.885 247.265 41.7694L245.295 40.483C245.885 39.8398 246.515 39.0894 247.185 38.2318C247.855 37.3742 248.498 36.5032 249.114 35.6188C249.731 34.7076 250.24 33.8768 250.642 33.1264ZM244.893 43.3372L247.707 43.9804C247.466 44.9988 247.158 46.044 246.783 47.116C246.408 48.1612 246.006 49.059 245.577 49.8094C245.282 49.6218 244.867 49.4074 244.331 49.1662C243.821 48.8982 243.393 48.6838 243.044 48.523C243.5 47.8262 243.875 47.0222 244.17 46.111C244.465 45.173 244.706 44.2484 244.893 43.3372ZM265.998 41.2468H269.054V50.2516H265.998V41.2468ZM262.22 39.7594C263.452 39.7326 264.859 39.6924 266.441 39.6388C268.022 39.5852 269.697 39.5316 271.466 39.478L271.425 42.1714C269.817 42.2786 268.25 42.3724 266.722 42.4528C265.221 42.5332 263.814 42.6136 262.501 42.694L262.22 39.7594ZM269.174 44.0608L271.586 43.3372C271.935 44.1412 272.283 45.0256 272.631 45.9904C272.98 46.9284 273.234 47.7458 273.395 48.4426L270.863 49.2868C270.729 48.59 270.501 47.7592 270.179 46.7944C269.884 45.8028 269.549 44.8916 269.174 44.0608ZM269.094 38.272L271.385 37.3072C271.787 38.0308 272.162 38.8482 272.511 39.7594C272.886 40.6706 273.141 41.4478 273.275 42.091L270.822 43.1764C270.715 42.5064 270.501 41.7158 270.179 40.8046C269.858 39.8666 269.496 39.0224 269.094 38.272ZM262.099 35.3776L263.747 33.1264C264.471 33.6088 265.168 34.1716 265.838 34.8148C266.534 35.4312 267.07 35.994 267.446 36.5032L265.596 39.0358C265.248 38.4998 264.739 37.8834 264.069 37.1866C263.426 36.4898 262.769 35.8868 262.099 35.3776ZM266.199 29.7898L268.933 31.1566C268.343 32.0678 267.754 32.979 267.164 33.8902C266.575 34.7746 266.025 35.5384 265.516 36.1816L263.385 35.0158C263.841 34.319 264.337 33.4614 264.873 32.443C265.436 31.4246 265.878 30.5402 266.199 29.7898ZM269.134 32.9656L271.828 34.5334C270.809 35.7394 269.737 36.999 268.611 38.3122C267.513 39.6254 266.467 40.7242 265.476 41.6086L263.546 40.3222C264.189 39.679 264.846 38.9286 265.516 38.071C266.213 37.2134 266.883 36.3424 267.526 35.458C268.169 34.5468 268.705 33.716 269.134 32.9656ZM263.345 43.3372L266.159 44.0206C265.918 45.0122 265.61 46.0306 265.235 47.0758C264.886 48.121 264.511 49.0054 264.109 49.729C263.841 49.5414 263.452 49.3136 262.943 49.0456C262.434 48.7508 262.005 48.523 261.657 48.3622C262.059 47.6654 262.394 46.8748 262.662 45.9904C262.93 45.0792 263.158 44.1948 263.345 43.3372ZM235.848 33.6088L238.582 30.3526C239.279 30.701 240.002 31.1164 240.753 31.5988C241.503 32.0544 242.2 32.5368 242.843 33.046C243.513 33.5284 244.049 33.984 244.451 34.4128L241.557 38.0308C241.182 37.5752 240.672 37.0928 240.029 36.5836C239.386 36.0476 238.689 35.525 237.939 35.0158C237.215 34.4798 236.518 34.0108 235.848 33.6088ZM235.004 44.2618L237.657 40.9252C238.354 41.2468 239.078 41.6354 239.828 42.091C240.579 42.5198 241.289 42.962 241.959 43.4176C242.656 43.8732 243.218 44.302 243.647 44.704L240.833 48.4024C240.458 47.9736 239.935 47.518 239.265 47.0356C238.595 46.5264 237.885 46.0306 237.135 45.5482C236.411 45.039 235.701 44.6102 235.004 44.2618ZM235.889 64.7236C236.398 63.6516 236.947 62.4188 237.537 61.0252C238.126 59.6048 238.716 58.104 239.306 56.5228C239.922 54.9148 240.471 53.3202 240.954 51.739L244.773 54.2314C244.344 55.6518 243.875 57.1124 243.366 58.6132C242.857 60.0872 242.334 61.5478 241.798 62.995C241.289 64.4422 240.766 65.8224 240.23 67.1356L235.889 64.7236ZM280.563 32.8852H314.05V36.7846H280.563V32.8852ZM282.011 62.5528H312.804V66.4924H282.011V62.5528ZM288.925 38.5132H305.327V41.89H288.925V38.5132ZM288.925 43.6588H305.327V47.0356H288.925V43.6588ZM278.393 48.8446H316.02V52.7842H278.393V48.8446ZM287.558 56.1208H306.935V59.9398H287.558V56.1208ZM286.111 29.83H290.935V50.9752H286.111V29.83ZM303.598 29.8702H308.543V51.0154H303.598V29.8702ZM294.674 53.5882H299.578V64.8442H294.674V53.5882ZM288.563 49.9702L292.623 51.4576C291.766 52.878 290.721 54.2314 289.488 55.5178C288.282 56.7774 286.969 57.9298 285.548 58.975C284.128 59.9934 282.654 60.8376 281.126 61.5076C280.885 61.1324 280.59 60.717 280.242 60.2614C279.893 59.8058 279.518 59.3636 279.116 58.9348C278.741 58.4792 278.379 58.1174 278.031 57.8494C279.451 57.3134 280.831 56.6434 282.171 55.8394C283.511 55.0354 284.731 54.1242 285.83 53.1058C286.955 52.0874 287.866 51.0422 288.563 49.9702ZM306.05 49.9702C306.774 50.9886 307.672 51.9802 308.744 52.945C309.842 53.883 311.048 54.7406 312.362 55.5178C313.702 56.295 315.068 56.9382 316.462 57.4474C316.114 57.7422 315.738 58.1174 315.336 58.573C314.934 59.0018 314.546 59.444 314.171 59.8996C313.822 60.3552 313.527 60.7706 313.286 61.1458C311.839 60.5026 310.432 59.6718 309.065 58.6534C307.698 57.635 306.425 56.5094 305.246 55.2766C304.067 54.017 303.062 52.7306 302.231 51.4174L306.05 49.9702ZM327.57 49.2466H352.614V67.618H347.75V52.6636H332.233V67.6582H327.57V49.2466ZM330.062 54.2314H350.283V56.965H330.062V54.2314ZM340.876 31.4782H354.303V35.2168H340.876V31.4782ZM331.308 31.6792H339.71V34.9354H331.308V31.6792ZM322.022 36.7444H340.916V40.2418H322.022V36.7444ZM330.062 58.6132H350.283V61.3468H330.062V58.6132ZM330.062 62.995H350.283V66.4522H330.062V62.995ZM329.057 29.7898H333.359V38.7946H329.057V29.7898ZM329.62 38.9956H333.801V45.1864C333.801 46.0708 333.707 46.781 333.519 47.317C333.332 47.8262 332.93 48.2282 332.313 48.523C331.724 48.8178 331.04 48.992 330.263 49.0456C329.513 49.0724 328.628 49.0858 327.61 49.0858C327.503 48.5498 327.342 47.9468 327.128 47.2768C326.913 46.6068 326.672 46.0172 326.404 45.508C326.994 45.5348 327.543 45.5482 328.052 45.5482C328.588 45.5482 328.95 45.5482 329.138 45.5482C329.325 45.5482 329.446 45.5214 329.499 45.4678C329.58 45.3874 329.62 45.2534 329.62 45.0658V38.9956ZM352.655 31.4782H353.499L354.303 31.3576L357.278 32.4832C356.474 35.3508 355.335 37.8432 353.861 39.9604C352.387 42.0776 350.631 43.8598 348.594 45.307C346.558 46.7274 344.306 47.8932 341.841 48.8044C341.573 48.2684 341.198 47.6386 340.715 46.915C340.233 46.1914 339.777 45.6152 339.348 45.1864C341.466 44.5432 343.422 43.632 345.218 42.4528C347.013 41.2468 348.554 39.7728 349.841 38.0308C351.127 36.2888 352.065 34.3324 352.655 32.1616V31.4782ZM345.941 34.9756C346.745 36.664 347.79 38.2318 349.077 39.679C350.363 41.1262 351.877 42.3724 353.619 43.4176C355.361 44.4628 357.291 45.2668 359.408 45.8296C358.899 46.312 358.35 46.9418 357.76 47.719C357.17 48.4694 356.728 49.1662 356.433 49.8094C354.182 49.0054 352.145 47.9602 350.323 46.6738C348.501 45.3606 346.906 43.8196 345.539 42.0508C344.172 40.2552 343.02 38.2586 342.082 36.061L345.941 34.9756ZM324.836 40.5232L328.494 41.488C328.012 42.7476 327.382 44.0206 326.605 45.307C325.855 46.5934 325.077 47.6654 324.273 48.523C323.925 48.2282 323.416 47.8798 322.746 47.4778C322.076 47.049 321.513 46.7274 321.057 46.513C321.861 45.709 322.585 44.7844 323.228 43.7392C323.898 42.6672 324.434 41.5952 324.836 40.5232ZM334.323 42.0508L337.66 40.6438C338.25 41.3138 338.853 42.1044 339.469 43.0156C340.112 43.9 340.568 44.6772 340.836 45.3472L337.338 46.9954C337.07 46.3254 336.642 45.5214 336.052 44.5834C335.489 43.6454 334.913 42.8012 334.323 42.0508ZM367.903 46.4326H379.32V50.1712H367.903V46.4326ZM365.933 33.4882H378.918V37.5484H365.933V33.4882ZM364.566 40.282H384.224V44.4226H364.566V40.282ZM370.516 29.83H374.978V42.3322H370.516V29.83ZM381.45 30.835L385.913 32.0812C383.929 37.066 381.303 41.4612 378.033 45.2668C374.791 49.0724 371.079 52.1544 366.898 54.5128C366.71 54.1912 366.416 53.8026 366.014 53.347C365.612 52.8646 365.196 52.3956 364.767 51.94C364.339 51.4844 363.977 51.1092 363.682 50.8144C367.756 48.8044 371.307 46.0842 374.335 42.6538C377.39 39.2234 379.762 35.2838 381.45 30.835ZM372.325 52.1812H376.868V63.0754C376.868 64.0938 376.747 64.9112 376.506 65.5276C376.265 66.144 375.782 66.613 375.059 66.9346C374.335 67.2294 373.491 67.417 372.526 67.4974C371.588 67.5778 370.476 67.618 369.189 67.618C369.109 67.0016 368.935 66.3048 368.667 65.5276C368.399 64.7504 368.117 64.0804 367.823 63.5176C368.627 63.5444 369.404 63.5578 370.154 63.5578C370.905 63.5578 371.4 63.5578 371.642 63.5578C371.936 63.531 372.124 63.4774 372.204 63.397C372.285 63.3166 372.325 63.1692 372.325 62.9548V52.1812ZM378.315 46.4326H379.32L380.204 46.1914L382.777 48.2818C381.812 49.4878 380.687 50.7072 379.4 51.94C378.141 53.1728 376.881 54.218 375.621 55.0756C375.38 54.7004 375.018 54.2716 374.536 53.7892C374.08 53.3068 373.692 52.9182 373.37 52.6234C373.96 52.141 374.576 51.5916 375.219 50.9752C375.863 50.332 376.452 49.6754 376.988 49.0054C377.551 48.3354 377.993 47.7324 378.315 47.1964V46.4326ZM364.245 55.9198C365.933 55.7858 367.863 55.6384 370.034 55.4776C372.231 55.3168 374.536 55.1426 376.948 54.955C379.387 54.7674 381.785 54.5664 384.144 54.352V58.4926C381.893 58.707 379.601 58.9214 377.27 59.1358C374.938 59.3234 372.7 59.511 370.556 59.6986C368.412 59.8862 366.469 60.047 364.727 60.181L364.245 55.9198ZM387.36 37.1866H402.153V41.6488H387.36V37.1866ZM387.923 29.83L392.827 30.5938C392.371 33.247 391.782 35.8466 391.058 38.3926C390.335 40.9118 389.49 43.2568 388.526 45.4276C387.561 47.5984 386.449 49.4878 385.189 51.0958C384.948 50.7742 384.586 50.399 384.104 49.9702C383.648 49.5414 383.166 49.1126 382.656 48.6838C382.147 48.255 381.705 47.92 381.33 47.6788C382.482 46.312 383.487 44.6906 384.345 42.8146C385.202 40.9118 385.926 38.8616 386.516 36.664C387.105 34.4396 387.574 32.1616 387.923 29.83ZM394.998 39.88L399.942 40.3222C399.353 44.905 398.442 48.9518 397.209 52.4626C396.003 55.9466 394.328 58.9482 392.184 61.4674C390.04 63.9866 387.279 66.0904 383.903 67.7788C383.742 67.4036 383.501 66.9346 383.179 66.3718C382.857 65.809 382.509 65.2462 382.134 64.6834C381.759 64.1474 381.41 63.7186 381.089 63.397C384.144 62.0302 386.609 60.2882 388.485 58.171C390.388 56.027 391.849 53.4408 392.867 50.4124C393.886 47.3572 394.596 43.8464 394.998 39.88ZM390.013 40.6438C390.576 44.0474 391.353 47.25 392.345 50.2516C393.363 53.2264 394.703 55.8528 396.365 58.1308C398.026 60.382 400.09 62.1508 402.555 63.4372C402.207 63.7588 401.818 64.1608 401.39 64.6432C400.961 65.1524 400.545 65.6616 400.143 66.1708C399.768 66.7068 399.46 67.2026 399.219 67.6582C396.512 66.0234 394.274 63.933 392.505 61.387C390.763 58.8142 389.356 55.8394 388.284 52.4626C387.212 49.0858 386.341 45.3874 385.671 41.3674L390.013 40.6438ZM416.316 44.503V49.5682H436.175V44.503H416.316ZM412.296 41.488H440.436V52.5028H412.296V41.488ZM419.171 36.9454H433.401V40.081H419.171V36.9454ZM424.115 42.493H428.015V50.9752H424.115V42.493ZM426.045 33.5686C424.866 34.721 423.392 35.8868 421.623 37.066C419.854 38.2452 417.938 39.344 415.874 40.3624C413.811 41.354 411.72 42.225 409.603 42.9754C409.335 42.4394 408.96 41.7962 408.477 41.0458C407.995 40.2954 407.526 39.679 407.07 39.1966C409.295 38.5266 411.452 37.6958 413.543 36.7042C415.66 35.7126 417.589 34.6138 419.331 33.4078C421.073 32.2018 422.494 31.0092 423.593 29.83H428.135C429.69 31.2504 431.405 32.5502 433.281 33.7294C435.184 34.9086 437.167 35.927 439.23 36.7846C441.321 37.6154 443.398 38.2988 445.461 38.8348C444.952 39.3708 444.456 40.014 443.974 40.7644C443.492 41.5148 443.063 42.1982 442.688 42.8146C441.267 42.3322 439.793 41.756 438.266 41.086C436.738 40.416 435.224 39.679 433.723 38.875C432.222 38.0442 430.815 37.1866 429.502 36.3022C428.189 35.391 427.036 34.4798 426.045 33.5686ZM417.723 45.3472L421.02 44.4628C421.395 45.1328 421.73 45.8698 422.025 46.6738C422.32 47.4778 422.521 48.1746 422.628 48.7642L419.13 49.8094C419.05 49.2198 418.876 48.5096 418.608 47.6788C418.34 46.8212 418.045 46.044 417.723 45.3472ZM430.989 44.302L435.009 45.2668C434.554 46.1244 434.125 46.9552 433.723 47.7592C433.348 48.5632 432.986 49.2466 432.638 49.8094L429.381 48.8848C429.649 48.2416 429.944 47.4778 430.266 46.5934C430.614 45.709 430.855 44.9452 430.989 44.302ZM414.507 53.8294H438.306V67.4572H433.321V56.965H419.251V67.618H414.507V53.8294ZM417.201 58.573H435.371V61.7086H417.201V58.573ZM417.241 63.397H435.371V66.5326H417.241V63.397Z" fill="#1E1E1E"/>
</g>
<defs>
<clipPath id="clip0_4_8">
<rect width="454" height="100" fill="white"/>
</clipPath>
</defs>
</svg>
